<svg width="98" height="40" viewBox="0 0 98 40" fill="none" xmlns="http://www.w3.org/2000/svg">
<g clip-path="url(#clip0_6_23)">
<path fill-rule="evenodd" clip-rule="evenodd" d="M25 32.5C26.3132 32.5 27.6136 32.2413 28.8268 31.7388C30.0401 31.2362 31.1425 30.4997 32.0711 29.5711C32.9997 28.6425 33.7362 27.5401 34.2388 26.3268C34.7413 25.1136 35 23.8132 35 22.5C35 18.5218 33.4196 14.7064 30.6066 11.8934C27.7936 9.08035 23.9782 7.5 20 7.5C16.0218 7.5 12.2064 9.08035 9.3934 11.8934C6.58035 14.7064 5 18.5218 5 22.5C5 23.8132 5.25866 25.1136 5.7612 26.3268C6.26375 27.5401 7.00035 28.6425 7.92893 29.5711C8.85752 30.4997 9.95991 31.2362 11.1732 31.7388C12.3864 32.2413 13.6868 32.5 15 32.5H25ZM20 11.5C17.0826 11.5 14.2847 12.6589 12.2218 14.7218C10.1589 16.7847 9 19.5826 9 22.5C9 23.2879 9.15519 24.0681 9.45672 24.7961C9.75825 25.5241 10.2002 26.1855 10.7574 26.7426C11.3145 27.2998 11.9759 27.7417 12.7039 28.0433C13.4319 28.3448 14.2121 28.5 15 28.5H25C25.7879 28.5 26.5681 28.3448 27.2961 28.0433C28.0241 27.7417 28.6855 27.2998 29.2426 26.7426C29.7998 26.1855 30.2417 25.5241 30.5433 24.7961C30.8448 24.0681 31 23.2879 31 22.5C31 19.5826 29.8411 16.7847 27.7782 14.7218C25.7153 12.6589 22.9174 11.5 20 11.5Z" fill="#F29C33"/>
<path fill-rule="evenodd" clip-rule="evenodd" d="M13 37.5C11.2928 37.5 9.60238 37.112 8.02512 36.3582C6.44792 35.6044 5.0148 34.4995 3.80761 33.1066C2.60047 31.7137 1.64289 30.0602 0.989566 28.2403C0.336257 26.4204 0 24.4698 0 22.5C0 17.1957 2.10714 12.1086 5.85787 8.35786C9.60859 4.60714 14.6957 2.5 20 2.5C25.3043 2.5 30.3914 4.60714 34.1421 8.35786C37.8929 12.1086 40 17.1957 40 22.5C40 24.4698 39.6637 26.4204 39.0104 28.2403C38.3571 30.0602 37.3995 31.7137 36.1924 33.1066C34.9852 34.4995 33.5521 35.6044 31.9749 36.3582C30.3976 37.112 28.7072 37.5 27 37.5H13ZM8.68629 11.1863C11.6869 8.18571 15.7565 6.5 20 6.5C24.2435 6.5 28.3131 8.18571 31.3137 11.1863C34.3143 14.1869 36 18.2565 36 22.5C36 24.0179 35.7404 25.5107 35.2457 26.8888C34.751 28.2668 34.0376 29.4854 33.1696 30.4869C32.3026 31.4873 31.3045 32.2452 30.25 32.7492C29.1981 33.252 28.0957 33.5 27 33.5H13C11.9043 33.5 10.8019 33.252 9.74999 32.7492C8.69549 32.2452 7.6974 31.4873 6.83037 30.4869C5.96242 29.4854 5.24903 28.2668 4.75433 26.8888C4.25961 25.5107 4 24.0179 4 22.5C4 18.2565 5.68571 14.1869 8.68629 11.1863Z" fill="#EE6352"/>
<path opacity="0.4" d="M25 27.5H19.9956C19.6596 27.4997 19.3261 27.4655 19 27.399C18.368 27.27 17.7637 27.0192 17.2222 26.6573C16.3999 26.1079 15.759 25.3271 15.3806 24.4134C15.2579 24.1171 15.1645 23.8112 15.101 23.5C14.9686 22.8515 14.9657 22.1799 15.0961 21.5245C15.289 20.5546 15.7652 19.6637 16.4645 18.9645C17.1637 18.2652 18.0546 17.789 19.0245 17.5961C19.0549 17.59 19.0852 17.5843 19.1156 17.5788C19.4087 17.5262 19.7047 17.5 20 17.5C20.6535 17.5 21.3038 17.6281 21.9134 17.8806C22.827 18.259 23.6079 18.8999 24.1573 19.7221C24.7068 20.5444 25 21.5111 25 22.5H21C21 22.3022 20.9414 22.1089 20.8315 21.9444C20.7216 21.78 20.5654 21.6518 20.3827 21.5761C20.2 21.5004 19.9989 21.4806 19.8049 21.5192C19.6109 21.5578 19.4327 21.653 19.2929 21.7929C19.153 21.9327 19.0578 22.1109 19.0192 22.3049C18.9806 22.4989 19.0004 22.7 19.0761 22.8827C19.1518 23.0654 19.28 23.2216 19.4444 23.3315C19.6089 23.4414 19.8022 23.5 20 23.5H25C25.1313 23.5 25.2614 23.4741 25.3827 23.4239C25.504 23.3736 25.6142 23.3 25.7071 23.2071C25.8 23.1142 25.8736 23.004 25.9239 22.8827C25.9741 22.7614 26 22.6313 26 22.5C26 20.9087 25.3679 19.3826 24.2426 18.2574C23.1174 17.1321 21.5913 16.5 20 16.5C19.8274 16.5 19.6556 16.5074 19.485 16.5221C19.0657 16.5582 18.6535 16.6382 18.255 16.7594C17.8629 16.8785 17.484 17.0376 17.1243 17.234C16.7123 17.459 16.3255 17.733 15.973 18.0522C15.8996 18.1186 15.8277 18.187 15.7574 18.2574C15.2651 18.7496 14.8672 19.3187 14.5753 19.9363C14.4294 20.2451 14.3099 20.566 14.2185 20.8956C14.1139 21.2724 14.0459 21.6604 14.0166 22.0544C14.0056 22.2022 14 22.3508 14 22.5C14 23.2841 14.1537 24.0646 14.4567 24.7961C14.9109 25.8925 15.6799 26.8295 16.6666 27.4888C16.6722 27.4926 16.6778 27.4963 16.6834 27.5H15C14.3434 27.5 13.6932 27.3707 13.0866 27.1194C12.48 26.8681 11.9288 26.4998 11.4645 26.0355C11.0002 25.5712 10.6319 25.02 10.3806 24.4134C10.1293 23.8068 10 23.1566 10 22.5C10 19.8478 11.0536 17.3043 12.9289 15.4289C14.8043 13.5536 17.3478 12.5 20 12.5C22.6522 12.5 25.1957 13.5536 27.0711 15.4289C28.9464 17.3043 30 19.8478 30 22.5C30 23.1566 29.8707 23.8068 29.6194 24.4134C29.3681 25.02 28.9998 25.5712 28.5355 26.0355C28.0712 26.4998 27.52 26.8681 26.9134 27.1194C26.3068 27.3707 25.6566 27.5 25 27.5Z" fill="#F29C33"/>
</g>
<path d="M60.98 4.36C61.1667 4.36 61.3933 4.48667 61.66 4.74C61.94 4.98 62.08 5.18667 62.08 5.36C62.08 6.17333 62.0533 7.28667 62 8.7C61.9867 9.04667 61.9733 9.46667 61.96 9.96C61.9467 10.44 61.94 11 61.94 11.64C61.94 13.6667 62.06 15.16 62.3 16.12C62.2867 16.44 62.16 16.6733 61.92 16.82C61.68 16.9533 61.44 17.02 61.2 17.02C60.6667 17.02 60.3133 16.8333 60.14 16.46C59.98 16.0867 59.9 15.5533 59.9 14.86C59.9 12.2867 59.9267 9.92 59.98 7.76C58.4467 9.46667 57.2533 10.9 56.4 12.06C56.4 12.06 56.28 12.14 56.04 12.3C55.8133 12.5 55.6267 12.6 55.48 12.6C55.1333 12.6 54.8467 12.5133 54.62 12.34C54.3933 12.1667 54.1733 11.9133 53.96 11.58L53 10.22C52.3333 9.28667 51.8467 8.58 51.54 8.1C51.54 9.32667 51.6 10.9933 51.72 13.1C51.8133 14.3133 51.86 15.2267 51.86 15.84C51.86 16.16 51.78 16.4333 51.62 16.66C51.46 16.8733 51.2067 16.98 50.86 16.98C50.5133 16.98 50.2267 16.9133 50 16.78C49.7867 16.6467 49.6733 16.4467 49.66 16.18C49.6733 15.9533 49.68 15.58 49.68 15.06C49.68 14.02 49.6467 12.7533 49.58 11.26L49.54 10.18L49.5 8.78C49.4867 8.36667 49.4733 7.88667 49.46 7.34C49.4467 6.78 49.44 6.17333 49.44 5.52C49.44 4.72 49.8733 4.32 50.74 4.32C51.0067 4.32 51.2733 4.38667 51.54 4.52C51.82 4.65333 52.0267 4.84667 52.16 5.1C52.2667 5.56667 52.66 6.34 53.34 7.42C54.02 8.5 54.6867 9.51333 55.34 10.46C55.9267 9.71333 56.4067 9.15333 56.78 8.78C57.42 8.12667 57.9467 7.52 58.36 6.96C58.7867 6.4 59.2467 5.72667 59.74 4.94C59.86 4.78 60.0333 4.64667 60.26 4.54C60.4867 4.42 60.7267 4.36 60.98 4.36ZM64.6227 12.76C64.6227 12.2533 64.716 11.7467 64.9027 11.24C65.0893 10.72 65.336 10.2467 65.6427 9.82C65.9493 9.39333 66.436 9.04667 67.1027 8.78C67.7693 8.5 68.3627 8.36 68.8827 8.36C69.416 8.36 69.956 8.43333 70.5027 8.58C71.0627 8.72667 71.4493 8.95333 71.6627 9.26C72.156 9.95333 72.4027 10.6333 72.4027 11.3C72.4027 11.66 72.3227 11.9667 72.1627 12.22C72.016 12.4733 71.8027 12.7467 71.5227 13.04C71.296 13.28 70.936 13.44 70.4427 13.52C69.9627 13.6 69.4827 13.64 69.0027 13.64C68.696 13.64 68.3227 13.6133 67.8827 13.56C67.4427 13.4933 67.016 13.4133 66.6027 13.32C66.6293 13.5867 66.696 13.8467 66.8027 14.1C66.9093 14.3533 67.036 14.5467 67.1827 14.68C67.4493 14.9333 67.7227 15.0933 68.0027 15.16C68.296 15.2267 68.6693 15.26 69.1227 15.26C69.6027 15.26 70.0493 15.18 70.4627 15.02C70.796 14.9 71.0693 14.84 71.2827 14.84C71.536 14.84 71.7293 14.92 71.8627 15.08C71.996 15.2267 72.0627 15.42 72.0627 15.66C72.0627 15.9933 71.8693 16.2667 71.4827 16.48C71.096 16.6933 70.6493 16.8533 70.1427 16.96C69.6493 17.0533 69.2493 17.1 68.9427 17.1C68.316 17.1 67.7093 16.9867 67.1227 16.76C66.536 16.5333 66.0493 16.2133 65.6627 15.8C65.3427 15.4267 65.0893 14.98 64.9027 14.46C64.716 13.9267 64.6227 13.36 64.6227 12.76ZM68.9827 10.06C68.6893 10.06 68.396 10.12 68.1027 10.24C67.8093 10.3467 67.5693 10.5 67.3827 10.7C67.1427 10.9533 66.976 11.16 66.8827 11.32C66.8027 11.4667 66.7493 11.6733 66.7227 11.94C67.056 12.0467 67.7493 12.1 68.8027 12.1C69.376 12.1 69.816 12.0133 70.1227 11.84C70.4427 11.6667 70.6027 11.44 70.6027 11.16C70.6027 10.88 70.4293 10.6267 70.0827 10.4C69.736 10.1733 69.3693 10.06 68.9827 10.06ZM81.9139 17.08C81.4606 17.08 81.1139 17.0133 80.8739 16.88C80.6339 16.7333 80.3739 16.4667 80.0939 16.08C79.7472 16.3867 79.2272 16.6333 78.5339 16.82C77.8539 17.0067 77.2672 17.1 76.7739 17.1C75.9606 17.1 75.3006 16.88 74.7939 16.44C74.3006 15.9867 74.0539 15.3267 74.0539 14.46C74.0539 14.0867 74.1539 13.7467 74.3539 13.44C74.5672 13.12 74.8406 12.84 75.1739 12.6C75.5472 12.3467 75.9872 12.1467 76.4939 12C77.0139 11.8533 77.4872 11.78 77.9139 11.78C78.6339 11.78 79.2739 11.8467 79.8339 11.98V11.96C79.8339 11.24 79.6539 10.7467 79.2939 10.48C78.9472 10.2 78.3872 10.06 77.6139 10.06C77.1206 10.06 76.6939 10.28 76.3339 10.72C76.2006 10.8933 75.9206 10.98 75.4939 10.98C75.2806 10.98 75.1206 10.8933 75.0139 10.72C74.9206 10.5333 74.8739 10.3467 74.8739 10.16C74.8739 9.77333 75.0339 9.44 75.3539 9.16C75.6872 8.88 76.0872 8.67333 76.5539 8.54C77.0206 8.39333 77.4539 8.32 77.8539 8.32C78.2406 8.32 78.7006 8.4 79.2339 8.56C79.7672 8.72 80.2006 8.93333 80.5339 9.2C80.9339 9.54667 81.2406 9.95333 81.4539 10.42C81.6806 10.8733 81.7939 11.3733 81.7939 11.92C81.7939 12.0933 81.7806 12.3533 81.7539 12.7C81.7272 13.1 81.7139 13.4267 81.7139 13.68C81.7139 13.8 81.7006 13.9533 81.6739 14.14C81.6472 14.38 81.6339 14.58 81.6339 14.74C81.6339 14.9133 81.6872 15.08 81.7939 15.24C81.9006 15.4 82.0472 15.5333 82.2339 15.64C82.4072 15.7333 82.5206 15.8333 82.5739 15.94C82.6272 16.0467 82.6539 16.1667 82.6539 16.3C82.6539 16.4333 82.5672 16.6 82.3939 16.8C82.2339 16.9867 82.0739 17.08 81.9139 17.08ZM77.9139 13.26C77.3939 13.26 76.9339 13.36 76.5339 13.56C76.1339 13.76 75.9339 14.1133 75.9339 14.62C75.9339 14.8733 76.0206 15.0867 76.1939 15.26C76.3806 15.4333 76.5806 15.52 76.7939 15.52C77.3672 15.52 77.8472 15.46 78.2339 15.34C78.6206 15.22 79.0872 15 79.6339 14.68C79.7006 14.4667 79.7406 14.1667 79.7539 13.78C79.7539 13.6333 79.7606 13.52 79.7739 13.44C79.0539 13.32 78.4339 13.26 77.9139 13.26ZM86.3977 13.9C86.3977 14.4067 86.471 14.8 86.6177 15.08C86.7777 15.3467 86.9777 15.48 87.2177 15.48C87.351 15.48 87.4777 15.4733 87.5977 15.46C87.7177 15.4333 87.8377 15.42 87.9577 15.42C88.091 15.42 88.2043 15.4867 88.2977 15.62C88.4043 15.7533 88.4577 15.9 88.4577 16.06C88.4577 16.38 88.3043 16.6333 87.9977 16.82C87.7043 16.9933 87.3043 17.08 86.7977 17.08C86.4377 17.08 86.071 16.9733 85.6977 16.76C85.3377 16.5333 85.0377 16.1867 84.7977 15.72C84.5577 15.24 84.4377 14.6467 84.4377 13.94C84.4377 12.42 84.4643 11.1333 84.5177 10.08C84.5843 8.82667 84.6177 7.24667 84.6177 5.34C84.6177 4.74 84.651 4.32 84.7177 4.08C84.7977 3.89333 84.9243 3.75333 85.0977 3.66C85.2843 3.55333 85.4777 3.5 85.6777 3.5C85.8777 3.5 86.051 3.53333 86.1977 3.6C86.3577 3.66667 86.4643 3.77333 86.5177 3.92C86.571 4.08 86.6043 4.24 86.6177 4.4C86.6443 4.54667 86.6577 4.76 86.6577 5.04C86.6577 5.58667 86.6377 6.11333 86.5977 6.62C86.571 7.23333 86.5577 7.68 86.5577 7.96C86.451 10.3067 86.3977 12.2867 86.3977 13.9ZM60.98 24.36C61.1667 24.36 61.3933 24.4867 61.66 24.74C61.94 24.98 62.08 25.1867 62.08 25.36C62.08 26.1733 62.0533 27.2867 62 28.7C61.9867 29.0467 61.9733 29.4667 61.96 29.96C61.9467 30.44 61.94 31 61.94 31.64C61.94 33.6667 62.06 35.16 62.3 36.12C62.2867 36.44 62.16 36.6733 61.92 36.82C61.68 36.9533 61.44 37.02 61.2 37.02C60.6667 37.02 60.3133 36.8333 60.14 36.46C59.98 36.0867 59.9 35.5533 59.9 34.86C59.9 32.2867 59.9267 29.92 59.98 27.76C58.4467 29.4667 57.2533 30.9 56.4 32.06C56.4 32.06 56.28 32.14 56.04 32.3C55.8133 32.5 55.6267 32.6 55.48 32.6C55.1333 32.6 54.8467 32.5133 54.62 32.34C54.3933 32.1667 54.1733 31.9133 53.96 31.58L53 30.22C52.3333 29.2867 51.8467 28.58 51.54 28.1C51.54 29.3267 51.6 30.9933 51.72 33.1C51.8133 34.3133 51.86 35.2267 51.86 35.84C51.86 36.16 51.78 36.4333 51.62 36.66C51.46 36.8733 51.2067 36.98 50.86 36.98C50.5133 36.98 50.2267 36.9133 50 36.78C49.7867 36.6467 49.6733 36.4467 49.66 36.18C49.6733 35.9533 49.68 35.58 49.68 35.06C49.68 34.02 49.6467 32.7533 49.58 31.26L49.54 30.18L49.5 28.78C49.4867 28.3667 49.4733 27.8867 49.46 27.34C49.4467 26.78 49.44 26.1733 49.44 25.52C49.44 24.72 49.8733 24.32 50.74 24.32C51.0067 24.32 51.2733 24.3867 51.54 24.52C51.82 24.6533 52.0267 24.8467 52.16 25.1C52.2667 25.5667 52.66 26.34 53.34 27.42C54.02 28.5 54.6867 29.5133 55.34 30.46C55.9267 29.7133 56.4067 29.1533 56.78 28.78C57.42 28.1267 57.9467 27.52 58.36 26.96C58.7867 26.4 59.2467 25.7267 59.74 24.94C59.86 24.78 60.0333 24.6467 60.26 24.54C60.4867 24.42 60.7267 24.36 60.98 24.36ZM73.8827 36.04C73.8827 36.3333 73.7227 36.58 73.4027 36.78C73.096 36.98 72.8093 37.08 72.5427 37.08C72.036 37.08 71.6293 37.02 71.3227 36.9C71.0293 36.7667 70.756 36.5267 70.5027 36.18C70.156 36.4867 69.6827 36.72 69.0827 36.88C68.4827 37.0267 67.9293 37.1 67.4227 37.1C66.596 37.1 65.916 36.88 65.3827 36.44C64.8493 35.9867 64.5827 35.3267 64.5827 34.46C64.5827 34.0867 64.6827 33.7467 64.8827 33.44C65.0827 33.12 65.356 32.84 65.7027 32.6C66.0893 32.3467 66.5293 32.1533 67.0227 32.02C67.516 31.8733 68.0293 31.8 68.5627 31.8C68.8427 31.8 69.176 31.8533 69.5627 31.96C69.9493 32.0667 70.2493 32.18 70.4627 32.3V31.98C70.4627 31.26 70.2893 30.7667 69.9427 30.5C69.596 30.22 69.036 30.08 68.2627 30.08C68.036 30.08 67.8093 30.1267 67.5827 30.22C67.3693 30.3133 67.1227 30.44 66.8427 30.6C66.4693 30.8 66.116 30.9 65.7827 30.9C65.6627 30.9 65.5493 30.82 65.4427 30.66C65.336 30.4867 65.2827 30.3333 65.2827 30.2C65.2827 29.8133 65.4627 29.48 65.8227 29.2C66.196 28.92 66.636 28.7133 67.1427 28.58C67.6493 28.4333 68.1027 28.36 68.5027 28.36C68.9027 28.36 69.3627 28.44 69.8827 28.6C70.4027 28.7467 70.8293 28.9533 71.1627 29.22C71.5627 29.5667 71.8693 29.9733 72.0827 30.44C72.3093 30.8933 72.4227 31.3933 72.4227 31.94C72.4227 32.1133 72.4093 32.3733 72.3827 32.72C72.356 33.0933 72.3427 33.4133 72.3427 33.68C72.3427 33.8 72.3293 33.98 72.3027 34.22C72.276 34.5133 72.2627 34.7467 72.2627 34.92C72.2627 35.08 72.3227 35.22 72.4427 35.34C72.5627 35.4467 72.7027 35.5 72.8627 35.5L73.4227 35.48C73.5693 35.48 73.6827 35.5333 73.7627 35.64C73.8427 35.7467 73.8827 35.88 73.8827 36.04ZM67.4427 35.52C68.016 35.52 68.496 35.46 68.8827 35.34C69.2693 35.22 69.736 35 70.2827 34.68C70.336 34.4533 70.3693 34.1533 70.3827 33.78C69.6493 33.4333 69.0427 33.26 68.5627 33.26C68.016 33.26 67.5293 33.36 67.1027 33.56C66.676 33.76 66.4627 34.1133 66.4627 34.62C66.4627 34.8733 66.5693 35.0867 66.7827 35.26C66.996 35.4333 67.216 35.52 67.4427 35.52ZM75.1147 30.08C74.928 30.0533 74.7747 29.9733 74.6547 29.84C74.548 29.7067 74.4947 29.5467 74.4947 29.36C74.4947 29.2667 74.5147 29.1667 74.5547 29.06C74.608 28.9533 74.6814 28.86 74.7747 28.78C74.948 28.6067 75.4147 28.52 76.1747 28.52C76.2814 28 76.3347 27.4733 76.3347 26.94C76.3347 26.74 76.328 26.5667 76.3147 26.42C76.3014 26.2733 76.2947 26.16 76.2947 26.08C76.2947 25.7867 76.4014 25.5667 76.6147 25.42C76.8414 25.2733 77.0947 25.2 77.3747 25.2C77.7214 25.2 77.9547 25.2867 78.0747 25.46C78.208 25.6333 78.2747 25.9533 78.2747 26.42C78.2747 27.1133 78.2147 27.7933 78.0947 28.46C78.308 28.46 78.6014 28.4467 78.9747 28.42C79.4814 28.3933 79.848 28.38 80.0747 28.38C80.3014 28.38 80.4947 28.44 80.6547 28.56C80.828 28.6667 80.9147 28.82 80.9147 29.02C80.9147 29.54 80.6814 29.8467 80.2147 29.94C79.7214 30.06 78.9547 30.1333 77.9147 30.16C77.8747 30.68 77.8547 31.2467 77.8547 31.86C77.8547 32.82 77.9147 33.6067 78.0347 34.22C78.1147 34.6467 78.248 34.96 78.4347 35.16C78.6347 35.3467 78.928 35.44 79.3147 35.44C79.5414 35.44 79.7747 35.38 80.0147 35.26C80.1747 35.1667 80.3214 35.12 80.4547 35.12C80.6414 35.12 80.7747 35.18 80.8547 35.3C80.948 35.42 80.9947 35.58 80.9947 35.78C80.9947 36.1533 80.7947 36.4667 80.3947 36.72C79.9947 36.96 79.4814 37.08 78.8547 37.08C78.468 37.08 78.0747 36.9867 77.6747 36.8C77.288 36.6133 76.9614 36.38 76.6947 36.1C76.6547 36.06 76.5814 35.9067 76.4747 35.64C76.368 35.3733 76.2747 35.0867 76.1947 34.78C76.0614 34.1533 75.9947 33.2733 75.9947 32.14C75.9947 31.6467 76.0214 30.9867 76.0747 30.16L75.1147 30.08ZM82.4342 32.42C82.4342 31.6067 82.6142 30.9333 82.9742 30.4C83.3342 29.8533 83.8342 29.34 84.4742 28.86C84.6609 28.7267 84.9742 28.6133 85.4142 28.52C85.8542 28.4133 86.2409 28.36 86.5742 28.36C86.9742 28.36 87.3942 28.4467 87.8342 28.62C88.2876 28.78 88.6542 28.9667 88.9342 29.18C89.4276 29.54 89.7676 29.96 89.9542 30.44C90.1409 30.9067 90.2342 31.4667 90.2342 32.12C90.2342 32.4 90.0742 32.6733 89.7542 32.94C89.4476 33.1933 89.1142 33.32 88.7542 33.32L87.9942 33.3C87.6076 33.3 87.0542 33.3133 86.3342 33.34L85.9142 33.36C85.6209 33.3867 85.4009 33.4 85.2542 33.4C85.0409 33.4 84.7476 33.3733 84.3742 33.32C84.4276 33.9467 84.6609 34.44 85.0742 34.8C85.4876 35.1467 85.9342 35.32 86.4142 35.32C87.2542 35.32 87.8409 35.1533 88.1742 34.82C88.4542 34.62 88.6409 34.4933 88.7342 34.44C88.8276 34.3867 88.9742 34.36 89.1742 34.36C89.3876 34.36 89.5742 34.46 89.7342 34.66C89.8942 34.86 89.9742 35.06 89.9742 35.26C89.9742 35.4867 89.8342 35.72 89.5542 35.96C89.2876 36.1867 88.9209 36.4267 88.4542 36.68C88.2009 36.7867 87.8542 36.88 87.4142 36.96C86.9742 37.04 86.6076 37.08 86.3142 37.08C85.8476 37.08 85.3276 36.9467 84.7542 36.68C84.1809 36.4 83.7542 36.0933 83.4742 35.76C83.1942 35.4267 82.9476 34.9533 82.7342 34.34C82.5342 33.7267 82.4342 33.0867 82.4342 32.42ZM86.4142 31.88C87.3609 31.88 88.0542 31.8467 88.4942 31.78C88.4676 31.3933 88.3476 31.08 88.1342 30.84C87.9209 30.5867 87.6276 30.3733 87.2542 30.2C87.1342 30.1467 87.0276 30.1067 86.9342 30.08C86.8409 30.0533 86.7342 30.04 86.6142 30.04C86.0009 30.04 85.4809 30.2067 85.0542 30.54C84.6409 30.8733 84.3942 31.3 84.3142 31.82C84.9809 31.86 85.6809 31.88 86.4142 31.88Z" fill="#262522"/>
<defs>
<clipPath id="clip0_6_23">
<rect width="40" height="35" fill="white" transform="translate(0 2.5)"/>
</clipPath>
</defs>
</svg>
