<svg width="87" height="35" viewBox="0 0 87 35" fill="none" xmlns="http://www.w3.org/2000/svg">
<g clip-path="url(#clip0_12_3)">
<path fill-rule="evenodd" clip-rule="evenodd" d="M25 30C26.3132 30 27.6136 29.7413 28.8268 29.2388C30.0401 28.7362 31.1425 27.9997 32.0711 27.0711C32.9997 26.1425 33.7362 25.0401 34.2388 23.8268C34.7413 22.6136 35 21.3132 35 20C35 16.0218 33.4196 12.2064 30.6066 9.3934C27.7936 6.58035 23.9782 5 20 5C16.0218 5 12.2064 6.58035 9.3934 9.3934C6.58035 12.2064 5 16.0218 5 20C5 21.3132 5.25866 22.6136 5.7612 23.8268C6.26375 25.0401 7.00035 26.1425 7.92893 27.0711C8.85752 27.9997 9.95991 28.7362 11.1732 29.2388C12.3864 29.7413 13.6868 30 15 30H25ZM20 9C17.0826 9 14.2847 10.1589 12.2218 12.2218C10.1589 14.2847 9 17.0826 9 20C9 20.7879 9.15519 21.5681 9.45672 22.2961C9.75825 23.0241 10.2002 23.6855 10.7574 24.2426C11.3145 24.7998 11.9759 25.2417 12.7039 25.5433C13.4319 25.8448 14.2121 26 15 26H25C25.7879 26 26.5681 25.8448 27.2961 25.5433C28.0241 25.2417 28.6855 24.7998 29.2426 24.2426C29.7998 23.6855 30.2417 23.0241 30.5433 22.2961C30.8448 21.5681 31 20.7879 31 20C31 17.0826 29.8411 14.2847 27.7782 12.2218C25.7153 10.1589 22.9174 9 20 9Z" fill="#F0EBE1" fill-opacity="0.6"/>
<path fill-rule="evenodd" clip-rule="evenodd" d="M13 35C11.2928 35 9.60238 34.612 8.02512 33.8582C6.44792 33.1044 5.0148 31.9995 3.80761 30.6066C2.60047 29.2137 1.64289 27.5602 0.989566 25.7403C0.336257 23.9204 0 21.9698 0 20C0 14.6957 2.10714 9.60859 5.85787 5.85786C9.60859 2.10714 14.6957 0 20 0C25.3043 0 30.3914 2.10714 34.1421 5.85786C37.8929 9.60859 40 14.6957 40 20C40 21.9698 39.6637 23.9204 39.0104 25.7403C38.3571 27.5602 37.3995 29.2137 36.1924 30.6066C34.9852 31.9995 33.5521 33.1044 31.9749 33.8582C30.3976 34.612 28.7072 35 27 35H13ZM8.68629 8.68629C11.6869 5.68571 15.7565 4 20 4C24.2435 4 28.3131 5.68571 31.3137 8.68629C34.3143 11.6869 36 15.7565 36 20C36 21.5179 35.7404 23.0107 35.2457 24.3888C34.751 25.7668 34.0376 26.9854 33.1696 27.9869C32.3026 28.9873 31.3045 29.7452 30.25 30.2492C29.1981 30.752 28.0957 31 27 31H13C11.9043 31 10.8019 30.752 9.74999 30.2492C8.69549 29.7452 7.6974 28.9873 6.83037 27.9869C5.96242 26.9854 5.24903 25.7668 4.75433 24.3888C4.25961 23.0107 4 21.5179 4 20C4 15.7565 5.68571 11.6869 8.68629 8.68629Z" fill="#F0EBE1"/>
<path d="M25 25H19.9956C19.6596 24.9997 19.3261 24.9655 19 24.899C18.368 24.77 17.7637 24.5192 17.2222 24.1573C16.3999 23.6079 15.759 22.8271 15.3806 21.9134C15.2579 21.6171 15.1645 21.3112 15.101 21C14.9686 20.3515 14.9657 19.6799 15.0961 19.0245C15.289 18.0546 15.7652 17.1637 16.4645 16.4645C17.1637 15.7652 18.0546 15.289 19.0245 15.0961C19.0549 15.09 19.0852 15.0843 19.1156 15.0788C19.4087 15.0262 19.7047 15 20 15C20.6535 15 21.3038 15.1281 21.9134 15.3806C22.827 15.759 23.6079 16.3999 24.1573 17.2221C24.7068 18.0444 25 19.0111 25 20H21C21 19.8022 20.9414 19.6089 20.8315 19.4444C20.7216 19.28 20.5654 19.1518 20.3827 19.0761C20.2 19.0004 19.9989 18.9806 19.8049 19.0192C19.6109 19.0578 19.4327 19.153 19.2929 19.2929C19.153 19.4327 19.0578 19.6109 19.0192 19.8049C18.9806 19.9989 19.0004 20.2 19.0761 20.3827C19.1518 20.5654 19.28 20.7216 19.4444 20.8315C19.6089 20.9414 19.8022 21 20 21H25C25.1313 21 25.2614 20.9741 25.3827 20.9239C25.504 20.8736 25.6142 20.8 25.7071 20.7071C25.8 20.6142 25.8736 20.504 25.9239 20.3827C25.9741 20.2614 26 20.1313 26 20C26 18.4087 25.3679 16.8826 24.2426 15.7574C23.1174 14.6321 21.5913 14 20 14C19.8274 14 19.6556 14.0074 19.485 14.0221C19.0657 14.0582 18.6535 14.1382 18.255 14.2594C17.8629 14.3785 17.484 14.5376 17.1243 14.734C16.7123 14.959 16.3255 15.233 15.973 15.5522C15.8996 15.6186 15.8277 15.687 15.7574 15.7574C15.2651 16.2496 14.8672 16.8187 14.5753 17.4363C14.4294 17.7451 14.3099 18.066 14.2185 18.3956C14.1139 18.7724 14.0459 19.1604 14.0166 19.5544C14.0056 19.7022 14 19.8508 14 20C14 20.7841 14.1537 21.5646 14.4567 22.2961C14.9109 23.3925 15.6799 24.3295 16.6666 24.9888C16.6722 24.9926 16.6778 24.9963 16.6834 25H15C14.3434 25 13.6932 24.8707 13.0866 24.6194C12.48 24.3681 11.9288 23.9998 11.4645 23.5355C11.0002 23.0712 10.6319 22.52 10.3806 21.9134C10.1293 21.3068 10 20.6566 10 20C10 17.3478 11.0536 14.8043 12.9289 12.9289C14.8043 11.0536 17.3478 10 20 10C22.6522 10 25.1957 11.0536 27.0711 12.9289C28.9464 14.8043 30 17.3478 30 20C30 20.6566 29.8707 21.3068 29.6194 21.9134C29.3681 22.52 28.9998 23.0712 28.5355 23.5355C28.0712 23.9998 27.52 24.3681 26.9134 24.6194C26.3068 24.8707 25.6566 25 25 25Z" fill="#F0EBE1" fill-opacity="0.32"/>
</g>
<path d="M57.086 6.652C57.2167 6.652 57.3753 6.74067 57.562 6.918C57.758 7.086 57.856 7.23067 57.856 7.352C57.856 7.92133 57.8373 8.70067 57.8 9.69C57.7907 9.93267 57.7813 10.2267 57.772 10.572C57.7627 10.908 57.758 11.3 57.758 11.748C57.758 13.1667 57.842 14.212 58.01 14.884C58.0007 15.108 57.912 15.2713 57.744 15.374C57.576 15.4673 57.408 15.514 57.24 15.514C56.8667 15.514 56.6193 15.3833 56.498 15.122C56.386 14.8607 56.33 14.4873 56.33 14.002C56.33 12.2007 56.3487 10.544 56.386 9.032C55.3127 10.2267 54.4773 11.23 53.88 12.042C53.88 12.042 53.796 12.098 53.628 12.21C53.4693 12.35 53.3387 12.42 53.236 12.42C52.9933 12.42 52.7927 12.3593 52.634 12.238C52.4753 12.1167 52.3213 11.9393 52.172 11.706L51.5 10.754C51.0333 10.1007 50.6927 9.606 50.478 9.27C50.478 10.1287 50.52 11.2953 50.604 12.77C50.6693 13.6193 50.702 14.2587 50.702 14.688C50.702 14.912 50.646 15.1033 50.534 15.262C50.422 15.4113 50.2447 15.486 50.002 15.486C49.7593 15.486 49.5587 15.4393 49.4 15.346C49.2507 15.2527 49.1713 15.1127 49.162 14.926C49.1713 14.7673 49.176 14.506 49.176 14.142C49.176 13.414 49.1527 12.5273 49.106 11.482L49.078 10.726L49.05 9.746C49.0407 9.45667 49.0313 9.12067 49.022 8.738C49.0127 8.346 49.008 7.92133 49.008 7.464C49.008 6.904 49.3113 6.624 49.918 6.624C50.1047 6.624 50.2913 6.67067 50.478 6.764C50.674 6.85733 50.8187 6.99267 50.912 7.17C50.9867 7.49667 51.262 8.038 51.738 8.794C52.214 9.55 52.6807 10.2593 53.138 10.922C53.5487 10.3993 53.8847 10.0073 54.146 9.746C54.594 9.28867 54.9627 8.864 55.252 8.472C55.5507 8.08 55.8727 7.60867 56.218 7.058C56.302 6.946 56.4233 6.85267 56.582 6.778C56.7407 6.694 56.9087 6.652 57.086 6.652ZM59.6359 12.532C59.6359 12.1773 59.7012 11.8227 59.8319 11.468C59.9625 11.104 60.1352 10.7727 60.3499 10.474C60.5645 10.1753 60.9052 9.93267 61.3719 9.746C61.8385 9.55 62.2539 9.452 62.6179 9.452C62.9912 9.452 63.3692 9.50333 63.7519 9.606C64.1439 9.70867 64.4145 9.86733 64.5639 10.082C64.9092 10.5673 65.0819 11.0433 65.0819 11.51C65.0819 11.762 65.0259 11.9767 64.9139 12.154C64.8112 12.3313 64.6619 12.5227 64.4659 12.728C64.3072 12.896 64.0552 13.008 63.7099 13.064C63.3739 13.12 63.0379 13.148 62.7019 13.148C62.4872 13.148 62.2259 13.1293 61.9179 13.092C61.6099 13.0453 61.3112 12.9893 61.0219 12.924C61.0405 13.1107 61.0872 13.2927 61.1619 13.47C61.2365 13.6473 61.3252 13.7827 61.4279 13.876C61.6145 14.0533 61.8059 14.1653 62.0019 14.212C62.2072 14.2587 62.4685 14.282 62.7859 14.282C63.1219 14.282 63.4345 14.226 63.7239 14.114C63.9572 14.03 64.1485 13.988 64.2979 13.988C64.4752 13.988 64.6105 14.044 64.7039 14.156C64.7972 14.2587 64.8439 14.394 64.8439 14.562C64.8439 14.7953 64.7085 14.9867 64.4379 15.136C64.1672 15.2853 63.8545 15.3973 63.4999 15.472C63.1545 15.5373 62.8745 15.57 62.6599 15.57C62.2212 15.57 61.7965 15.4907 61.3859 15.332C60.9752 15.1733 60.6345 14.9493 60.3639 14.66C60.1399 14.3987 59.9625 14.086 59.8319 13.722C59.7012 13.3487 59.6359 12.952 59.6359 12.532ZM62.6879 10.642C62.4825 10.642 62.2772 10.684 62.0719 10.768C61.8665 10.8427 61.6985 10.95 61.5679 11.09C61.3999 11.2673 61.2832 11.412 61.2179 11.524C61.1619 11.6267 61.1245 11.7713 61.1059 11.958C61.3392 12.0327 61.8245 12.07 62.5619 12.07C62.9632 12.07 63.2712 12.0093 63.4859 11.888C63.7099 11.7667 63.8219 11.608 63.8219 11.412C63.8219 11.216 63.7005 11.0387 63.4579 10.88C63.2152 10.7213 62.9585 10.642 62.6879 10.642ZM71.7397 15.556C71.4224 15.556 71.1797 15.5093 71.0117 15.416C70.8437 15.3133 70.6617 15.1267 70.4657 14.856C70.2231 15.0707 69.8591 15.2433 69.3737 15.374C68.8977 15.5047 68.4871 15.57 68.1417 15.57C67.5724 15.57 67.1104 15.416 66.7557 15.108C66.4104 14.7907 66.2377 14.3287 66.2377 13.722C66.2377 13.4607 66.3077 13.2227 66.4477 13.008C66.5971 12.784 66.7884 12.588 67.0217 12.42C67.2831 12.2427 67.5911 12.1027 67.9457 12C68.3097 11.8973 68.6411 11.846 68.9397 11.846C69.4437 11.846 69.8917 11.8927 70.2837 11.986V11.972C70.2837 11.468 70.1577 11.1227 69.9057 10.936C69.6631 10.74 69.2711 10.642 68.7297 10.642C68.3844 10.642 68.0857 10.796 67.8337 11.104C67.7404 11.2253 67.5444 11.286 67.2457 11.286C67.0964 11.286 66.9844 11.2253 66.9097 11.104C66.8444 10.9733 66.8117 10.8427 66.8117 10.712C66.8117 10.4413 66.9237 10.208 67.1477 10.012C67.3811 9.816 67.6611 9.67133 67.9877 9.578C68.3144 9.47533 68.6177 9.424 68.8977 9.424C69.1684 9.424 69.4904 9.48 69.8637 9.592C70.2371 9.704 70.5404 9.85333 70.7737 10.04C71.0537 10.2827 71.2684 10.5673 71.4177 10.894C71.5764 11.2113 71.6557 11.5613 71.6557 11.944C71.6557 12.0653 71.6464 12.2473 71.6277 12.49C71.6091 12.77 71.5997 12.9987 71.5997 13.176C71.5997 13.26 71.5904 13.3673 71.5717 13.498C71.5531 13.666 71.5437 13.806 71.5437 13.918C71.5437 14.0393 71.5811 14.156 71.6557 14.268C71.7304 14.38 71.8331 14.4733 71.9637 14.548C72.0851 14.6133 72.1644 14.6833 72.2017 14.758C72.2391 14.8327 72.2577 14.9167 72.2577 15.01C72.2577 15.1033 72.1971 15.22 72.0757 15.36C71.9637 15.4907 71.8517 15.556 71.7397 15.556ZM68.9397 12.882C68.5757 12.882 68.2537 12.952 67.9737 13.092C67.6937 13.232 67.5537 13.4793 67.5537 13.834C67.5537 14.0113 67.6144 14.1607 67.7357 14.282C67.8664 14.4033 68.0064 14.464 68.1557 14.464C68.5571 14.464 68.8931 14.422 69.1637 14.338C69.4344 14.254 69.7611 14.1 70.1437 13.876C70.1904 13.7267 70.2184 13.5167 70.2277 13.246C70.2277 13.1433 70.2324 13.064 70.2417 13.008C69.7377 12.924 69.3037 12.882 68.9397 12.882ZM74.8784 13.33C74.8784 13.6847 74.9297 13.96 75.0324 14.156C75.1444 14.3427 75.2844 14.436 75.4524 14.436C75.5457 14.436 75.6344 14.4313 75.7184 14.422C75.8024 14.4033 75.8864 14.394 75.9704 14.394C76.0637 14.394 76.143 14.4407 76.2084 14.534C76.283 14.6273 76.3204 14.73 76.3204 14.842C76.3204 15.066 76.213 15.2433 75.9984 15.374C75.793 15.4953 75.513 15.556 75.1584 15.556C74.9064 15.556 74.6497 15.4813 74.3884 15.332C74.1364 15.1733 73.9264 14.9307 73.7584 14.604C73.5904 14.268 73.5064 13.8527 73.5064 13.358C73.5064 12.294 73.525 11.3933 73.5624 10.656C73.609 9.77867 73.6324 8.67267 73.6324 7.338C73.6324 6.918 73.6557 6.624 73.7024 6.456C73.7584 6.32533 73.847 6.22733 73.9684 6.162C74.099 6.08733 74.2344 6.05 74.3744 6.05C74.5144 6.05 74.6357 6.07333 74.7384 6.12C74.8504 6.16667 74.925 6.24133 74.9624 6.344C74.9997 6.456 75.023 6.568 75.0324 6.68C75.051 6.78267 75.0604 6.932 75.0604 7.128C75.0604 7.51067 75.0464 7.87933 75.0184 8.234C74.9997 8.66333 74.9904 8.976 74.9904 9.172C74.9157 10.8147 74.8784 12.2007 74.8784 13.33ZM57.086 20.652C57.2167 20.652 57.3753 20.7407 57.562 20.918C57.758 21.086 57.856 21.2307 57.856 21.352C57.856 21.9213 57.8373 22.7007 57.8 23.69C57.7907 23.9327 57.7813 24.2267 57.772 24.572C57.7627 24.908 57.758 25.3 57.758 25.748C57.758 27.1667 57.842 28.212 58.01 28.884C58.0007 29.108 57.912 29.2713 57.744 29.374C57.576 29.4673 57.408 29.514 57.24 29.514C56.8667 29.514 56.6193 29.3833 56.498 29.122C56.386 28.8607 56.33 28.4873 56.33 28.002C56.33 26.2007 56.3487 24.544 56.386 23.032C55.3127 24.2267 54.4773 25.23 53.88 26.042C53.88 26.042 53.796 26.098 53.628 26.21C53.4693 26.35 53.3387 26.42 53.236 26.42C52.9933 26.42 52.7927 26.3593 52.634 26.238C52.4753 26.1167 52.3213 25.9393 52.172 25.706L51.5 24.754C51.0333 24.1007 50.6927 23.606 50.478 23.27C50.478 24.1287 50.52 25.2953 50.604 26.77C50.6693 27.6193 50.702 28.2587 50.702 28.688C50.702 28.912 50.646 29.1033 50.534 29.262C50.422 29.4113 50.2447 29.486 50.002 29.486C49.7593 29.486 49.5587 29.4393 49.4 29.346C49.2507 29.2527 49.1713 29.1127 49.162 28.926C49.1713 28.7673 49.176 28.506 49.176 28.142C49.176 27.414 49.1527 26.5273 49.106 25.482L49.078 24.726L49.05 23.746C49.0407 23.4567 49.0313 23.1207 49.022 22.738C49.0127 22.346 49.008 21.9213 49.008 21.464C49.008 20.904 49.3113 20.624 49.918 20.624C50.1047 20.624 50.2913 20.6707 50.478 20.764C50.674 20.8573 50.8187 20.9927 50.912 21.17C50.9867 21.4967 51.262 22.038 51.738 22.794C52.214 23.55 52.6807 24.2593 53.138 24.922C53.5487 24.3993 53.8847 24.0073 54.146 23.746C54.594 23.2887 54.9627 22.864 55.252 22.472C55.5507 22.08 55.8727 21.6087 56.218 21.058C56.302 20.946 56.4233 20.8527 56.582 20.778C56.7407 20.694 56.9087 20.652 57.086 20.652ZM66.1179 28.828C66.1179 29.0333 66.0059 29.206 65.7819 29.346C65.5672 29.486 65.3665 29.556 65.1799 29.556C64.8252 29.556 64.5405 29.514 64.3259 29.43C64.1205 29.3367 63.9292 29.1687 63.7519 28.926C63.5092 29.1407 63.1779 29.304 62.7579 29.416C62.3379 29.5187 61.9505 29.57 61.5959 29.57C61.0172 29.57 60.5412 29.416 60.1679 29.108C59.7945 28.7907 59.6079 28.3287 59.6079 27.722C59.6079 27.4607 59.6779 27.2227 59.8179 27.008C59.9579 26.784 60.1492 26.588 60.3919 26.42C60.6625 26.2427 60.9705 26.1073 61.3159 26.014C61.6612 25.9113 62.0205 25.86 62.3939 25.86C62.5899 25.86 62.8232 25.8973 63.0939 25.972C63.3645 26.0467 63.5745 26.126 63.7239 26.21V25.986C63.7239 25.482 63.6025 25.1367 63.3599 24.95C63.1172 24.754 62.7252 24.656 62.1839 24.656C62.0252 24.656 61.8665 24.6887 61.7079 24.754C61.5585 24.8193 61.3859 24.908 61.1899 25.02C60.9285 25.16 60.6812 25.23 60.4479 25.23C60.3639 25.23 60.2845 25.174 60.2099 25.062C60.1352 24.9407 60.0979 24.8333 60.0979 24.74C60.0979 24.4693 60.2239 24.236 60.4759 24.04C60.7372 23.844 61.0452 23.6993 61.3999 23.606C61.7545 23.5033 62.0719 23.452 62.3519 23.452C62.6319 23.452 62.9539 23.508 63.3179 23.62C63.6819 23.7227 63.9805 23.8673 64.2139 24.054C64.4939 24.2967 64.7085 24.5813 64.8579 24.908C65.0165 25.2253 65.0959 25.5753 65.0959 25.958C65.0959 26.0793 65.0865 26.2613 65.0679 26.504C65.0492 26.7653 65.0399 26.9893 65.0399 27.176C65.0399 27.26 65.0305 27.386 65.0119 27.554C64.9932 27.7593 64.9839 27.9227 64.9839 28.044C64.9839 28.156 65.0259 28.254 65.1099 28.338C65.1939 28.4127 65.2919 28.45 65.4039 28.45L65.7959 28.436C65.8985 28.436 65.9779 28.4733 66.0339 28.548C66.0899 28.6227 66.1179 28.716 66.1179 28.828ZM61.6099 28.464C62.0112 28.464 62.3472 28.422 62.6179 28.338C62.8885 28.254 63.2152 28.1 63.5979 27.876C63.6352 27.7173 63.6585 27.5073 63.6679 27.246C63.1545 27.0033 62.7299 26.882 62.3939 26.882C62.0112 26.882 61.6705 26.952 61.3719 27.092C61.0732 27.232 60.9239 27.4793 60.9239 27.834C60.9239 28.0113 60.9985 28.1607 61.1479 28.282C61.2972 28.4033 61.4512 28.464 61.6099 28.464ZM66.9803 24.656C66.8496 24.6373 66.7423 24.5813 66.6583 24.488C66.5836 24.3947 66.5463 24.2827 66.5463 24.152C66.5463 24.0867 66.5603 24.0167 66.5883 23.942C66.6256 23.8673 66.6769 23.802 66.7423 23.746C66.8636 23.6247 67.1903 23.564 67.7223 23.564C67.7969 23.2 67.8343 22.8313 67.8343 22.458C67.8343 22.318 67.8296 22.1967 67.8203 22.094C67.8109 21.9913 67.8063 21.912 67.8063 21.856C67.8063 21.6507 67.8809 21.4967 68.0303 21.394C68.1889 21.2913 68.3663 21.24 68.5623 21.24C68.8049 21.24 68.9683 21.3007 69.0523 21.422C69.1456 21.5433 69.1923 21.7673 69.1923 22.094C69.1923 22.5793 69.1503 23.0553 69.0663 23.522C69.2156 23.522 69.4209 23.5127 69.6823 23.494C70.0369 23.4753 70.2936 23.466 70.4523 23.466C70.6109 23.466 70.7463 23.508 70.8583 23.592C70.9796 23.6667 71.0403 23.774 71.0403 23.914C71.0403 24.278 70.8769 24.4927 70.5503 24.558C70.2049 24.642 69.6683 24.6933 68.9403 24.712C68.9123 25.076 68.8983 25.4727 68.8983 25.902C68.8983 26.574 68.9403 27.1247 69.0243 27.554C69.0803 27.8527 69.1736 28.072 69.3043 28.212C69.4443 28.3427 69.6496 28.408 69.9203 28.408C70.0789 28.408 70.2423 28.366 70.4103 28.282C70.5223 28.2167 70.6249 28.184 70.7183 28.184C70.8489 28.184 70.9423 28.226 70.9983 28.31C71.0636 28.394 71.0963 28.506 71.0963 28.646C71.0963 28.9073 70.9563 29.1267 70.6763 29.304C70.3963 29.472 70.0369 29.556 69.5983 29.556C69.3276 29.556 69.0523 29.4907 68.7723 29.36C68.5016 29.2293 68.2729 29.066 68.0863 28.87C68.0583 28.842 68.0069 28.7347 67.9323 28.548C67.8576 28.3613 67.7923 28.1607 67.7363 27.946C67.6429 27.5073 67.5963 26.8913 67.5963 26.098C67.5963 25.7527 67.6149 25.2907 67.6523 24.712L66.9803 24.656ZM72.104 26.294C72.104 25.7247 72.23 25.2533 72.482 24.88C72.734 24.4973 73.084 24.138 73.532 23.802C73.6626 23.7087 73.882 23.6293 74.19 23.564C74.498 23.4893 74.7686 23.452 75.002 23.452C75.282 23.452 75.576 23.5127 75.884 23.634C76.2013 23.746 76.458 23.8767 76.654 24.026C76.9993 24.278 77.2373 24.572 77.368 24.908C77.4986 25.2347 77.564 25.6267 77.564 26.084C77.564 26.28 77.452 26.4713 77.228 26.658C77.0133 26.8353 76.78 26.924 76.528 26.924L75.996 26.91C75.7253 26.91 75.338 26.9193 74.834 26.938L74.54 26.952C74.3346 26.9707 74.1806 26.98 74.078 26.98C73.9286 26.98 73.7233 26.9613 73.462 26.924C73.4993 27.3627 73.6626 27.708 73.952 27.96C74.2413 28.2027 74.554 28.324 74.89 28.324C75.478 28.324 75.8886 28.2073 76.122 27.974C76.318 27.834 76.4486 27.7453 76.514 27.708C76.5793 27.6707 76.682 27.652 76.822 27.652C76.9713 27.652 77.102 27.722 77.214 27.862C77.326 28.002 77.382 28.142 77.382 28.282C77.382 28.4407 77.284 28.604 77.088 28.772C76.9013 28.9307 76.6446 29.0987 76.318 29.276C76.1406 29.3507 75.898 29.416 75.59 29.472C75.282 29.528 75.0253 29.556 74.82 29.556C74.4933 29.556 74.1293 29.4627 73.728 29.276C73.3266 29.08 73.028 28.8653 72.832 28.632C72.636 28.3987 72.4633 28.0673 72.314 27.638C72.174 27.2087 72.104 26.7607 72.104 26.294ZM74.89 25.916C75.5526 25.916 76.038 25.8927 76.346 25.846C76.3273 25.5753 76.2433 25.356 76.094 25.188C75.9446 25.0107 75.7393 24.8613 75.478 24.74C75.394 24.7027 75.3193 24.6747 75.254 24.656C75.1886 24.6373 75.114 24.628 75.03 24.628C74.6006 24.628 74.2366 24.7447 73.938 24.978C73.6486 25.2113 73.476 25.51 73.42 25.874C73.8866 25.902 74.3766 25.916 74.89 25.916Z" fill="#F0EBE1"/>
<defs>
<clipPath id="clip0_12_3">
<rect width="40" height="35" fill="white"/>
</clipPath>
</defs>
</svg>
